<?xml version="1.0" standalone="no"?>
<!DOCTYPE svg PUBLIC "-//W3C//DTD SVG 20010904//EN"
 "http://www.w3.org/TR/2001/REC-SVG-20010904/DTD/svg10.dtd">
<svg version="1.0" xmlns="http://www.w3.org/2000/svg"
 width="700.000000pt" height="700.000000pt" viewBox="0 0 700.000000 700.000000"
 preserveAspectRatio="xMidYMid meet">
<metadata>
Created by potrace 1.11, written by Peter Selinger 2001-2013
</metadata>
<g transform="translate(0.000000,700.000000) scale(0.100000,-0.100000)"
fill="#000000" stroke="none">
<path d="M2645 6990 c-16 -4 -37 -9 -45 -11 -26 -7 -104 -62 -139 -99 -34 -36
-77 -116 -85 -160 -2 -14 -5 -496 -5 -1071 l-1 -1047 -1027 -1 c-566 0 -1038
-3 -1050 -6 -13 -3 -31 -7 -42 -9 -75 -17 -175 -106 -219 -195 l-27 -56 0
-800 0 -800 26 -56 c45 -96 127 -170 221 -201 22 -7 361 -11 1068 -13 569 -1
1038 -3 1042 -4 4 0 9 -495 10 -1098 l3 -1098 29 -60 c29 -59 117 -155 142
-155 7 0 14 -4 16 -10 2 -5 28 -16 58 -24 47 -13 183 -15 915 -13 l860 2 57
29 c98 49 166 133 193 236 11 41 13 246 14 1023 0 535 0 1017 0 1072 l1 100
1033 0 1032 1 67 33 c80 40 139 100 176 179 l27 57 3 765 c2 554 0 780 -8 820
-28 132 -135 241 -267 271 -33 7 -358 11 -1055 11 -931 0 -1008 1 -1008 16 0
10 -2 487 -3 1062 l-2 1045 -28 60 c-47 100 -133 175 -232 201 -40 11 -220 13
-885 13 -459 -1 -848 -4 -865 -9z"/>
</g>
</svg>
